<svg xmlns="http://www.w3.org/2000/svg" width="139.809" height="29.29" viewBox="0 0 139.809 29.29">
  <path d="M9.164-20.358A9.375,9.375,0,0,1,14.4-19.125a3.846,3.846,0,0,1,1.61,3.842,3.906,3.906,0,0,1-.595,1.783,5.084,5.084,0,0,1-1.552,1.566,7.166,7.166,0,0,1-2.581,1v.058a6.537,6.537,0,0,1,4.51,1.609,4.418,4.418,0,0,1,1.29,3.553,5.568,5.568,0,0,1-1.03,3.089A5.878,5.878,0,0,1,13.529-.667,9.055,9.055,0,0,1,9.976,0H1.1l.087-1.276a2.275,2.275,0,0,0,1.392-.391,1.89,1.89,0,0,0,.595-1.088,11.55,11.55,0,0,0,.217-1.827L4-16.414q.029-.783.1-1.406t.13-1q-.522.029-1.1.058t-1.044.058L2.175-20.3q1.74,0,3.451-.029T9.164-20.358ZM9.425-9.831q-.841,0-1.479.014t-1.305.043L6.322-3.828q-.029.783-.087,1.377t-.116.972q.464.029,1.059.029H9.106a4.948,4.948,0,0,0,3.321-1.116,4.217,4.217,0,0,0,1.349-3.06,4.064,4.064,0,0,0-.522-2.509A3.365,3.365,0,0,0,11.629-9.44,6.073,6.073,0,0,0,9.425-9.831ZM9.135-19a2.734,2.734,0,0,0-1.218.232,1.355,1.355,0,0,0-.667.8A6.183,6.183,0,0,0,6.989-16.3l-.261,5.1q.493,0,.986-.015t.928-.043a4.632,4.632,0,0,0,2.422-.667A3.614,3.614,0,0,0,12.4-13.47a5.181,5.181,0,0,0,.45-1.987,3.235,3.235,0,0,0-.493-2.2,2.991,2.991,0,0,0-1.45-1.044A5.56,5.56,0,0,0,9.135-19Zm15.689-2.9q-.087.783-.232,1.668T24.331-18.5q-.116.841-.2,1.537-.232,1.74-.42,3.465t-.363,3.335q-.174,1.609-.29,3.016T22.866-4.64q-.073,1.1-.073,1.8a3.194,3.194,0,0,0,.116.928.515.515,0,0,0,.551.377,1.366,1.366,0,0,0,.943-.58,5.708,5.708,0,0,0,.943-2.059l1.044.29A8.317,8.317,0,0,1,25.984-2.6,6.131,6.131,0,0,1,25.215-1.2,4.206,4.206,0,0,1,24.041-.116a3,3,0,0,1-1.624.435A2.458,2.458,0,0,1,20.648-.29a2.5,2.5,0,0,1-.638-1.885q-.029-.841.058-2.2T20.3-7.41q.145-1.668.333-3.48t.406-3.567q.218-1.754.42-3.292.116-.7.174-1.117t.116-.826q-.493.029-1.044.058t-1.015.058l.145-1.508a12.974,12.974,0,0,0,2.074-.13,5.776,5.776,0,0,0,1.189-.3,2.37,2.37,0,0,0,.653-.377ZM36.25-14.819a14.313,14.313,0,0,1,1.928.145q1.059.145,2.074.377-.2,1.537-.435,3.2T39.4-7.845q-.189,1.58-.319,2.856t-.131,2a4.551,4.551,0,0,0,.1,1,.524.524,0,0,0,.565.45,1.413,1.413,0,0,0,.986-.594,5.4,5.4,0,0,0,.928-2.045l1.073.261a8.27,8.27,0,0,1-.392,1.262,6.919,6.919,0,0,1-.739,1.392A4.115,4.115,0,0,1,40.325-.131a2.8,2.8,0,0,1-1.581.45,2.02,2.02,0,0,1-1.653-.667,2.984,2.984,0,0,1-.551-1.943A10.709,10.709,0,0,1,36.656-3.8q.116-.812.261-1.653h-.058a15.248,15.248,0,0,1-1.334,2.987,7.591,7.591,0,0,1-1.392,1.74A3.955,3.955,0,0,1,32.756.1a4.331,4.331,0,0,1-1.32.218,3.443,3.443,0,0,1-2.653-1.2,5.786,5.786,0,0,1-1.087-3.93,13.367,13.367,0,0,1,.536-3.814,9.55,9.55,0,0,1,1.624-3.2,7.731,7.731,0,0,1,2.7-2.189A8.223,8.223,0,0,1,36.25-14.819Zm-.957,1.334a3.246,3.246,0,0,0-2,.653,5.147,5.147,0,0,0-1.465,1.813,9.937,9.937,0,0,0-.885,2.682,17.432,17.432,0,0,0-.29,3.263,8.13,8.13,0,0,0,.362,2.654,1.3,1.3,0,0,0,1.262,1.03,2.028,2.028,0,0,0,1.436-.74,8.057,8.057,0,0,0,1.334-1.987,18.354,18.354,0,0,0,1.1-2.8,24.885,24.885,0,0,0,.754-3.176,21.041,21.041,0,0,0,.3-3.1,3.549,3.549,0,0,0-.855-.218A7.481,7.481,0,0,0,35.293-13.485ZM56.144.319A2.187,2.187,0,0,1,54.2-.45a3.878,3.878,0,0,1-.522-2.19,16.571,16.571,0,0,1,.131-1.914q.13-1.1.29-2.306t.29-2.392a20.066,20.066,0,0,0,.131-2.175,2.73,2.73,0,0,0-.1-.74,1.363,1.363,0,0,0-.348-.609,1,1,0,0,0-.739-.247,2.131,2.131,0,0,0-1.435.711A7.7,7.7,0,0,0,50.5-10.382a19.336,19.336,0,0,0-1.174,2.7A21.581,21.581,0,0,0,48.5-4.655a15.3,15.3,0,0,0-.3,2.943q0,.406.014.87T48.256,0H45.385q-.029-.348-.029-.536t0-.421q0-.551.058-1.262T45.6-3.973q.131-1.044.3-2.581.145-1.392.246-2.277t.174-1.45q.072-.565.1-.913t.029-.638a1.95,1.95,0,0,0-.145-.826.528.528,0,0,0-.522-.3,1.4,1.4,0,0,0-.928.595,5.675,5.675,0,0,0-.957,2.045l-1.073-.261a8.27,8.27,0,0,1,.392-1.262,6.918,6.918,0,0,1,.739-1.392,4.2,4.2,0,0,1,1.131-1.131,2.735,2.735,0,0,1,1.566-.45,1.989,1.989,0,0,1,1.363.435,2.353,2.353,0,0,1,.7,1.189,6.032,6.032,0,0,1,.174,1.74,9.089,9.089,0,0,1-.145,1.334q-.116.609-.2,1.16H48.6a16.633,16.633,0,0,1,1.813-3.6,5.685,5.685,0,0,1,1.841-1.769,3.875,3.875,0,0,1,1.827-.493,3.076,3.076,0,0,1,1.9.536,3.012,3.012,0,0,1,1.03,1.436,6.045,6.045,0,0,1,.319,2.03,22.6,22.6,0,0,1-.2,2.958q-.2,1.537-.406,2.9a15.888,15.888,0,0,0-.2,2.262,2.257,2.257,0,0,0,.131.841.52.52,0,0,0,.536.319,1.366,1.366,0,0,0,.943-.58,5.708,5.708,0,0,0,.943-2.059l1.044.29a6.218,6.218,0,0,1-.377,1.247,6.235,6.235,0,0,1-.783,1.392A4.508,4.508,0,0,1,57.768-.131,2.927,2.927,0,0,1,56.144.319ZM69.832-14.819q.551,0,1.29.058t1.493.13q.754.072,1.305.16-.145,1.943-.348,4.22t-.421,4.7q-.217,2.422-.421,4.742T72.384,3.48Q72.355,4,72.3,4.7a10.21,10.21,0,0,1-.174,1.247q.464-.029.971-.043t.913-.043V7.4H67.889V6.177a1.355,1.355,0,0,0,1.218-.522,3.385,3.385,0,0,0,.45-1.523q.1-1,.218-2.393.116-1.711.3-3.465T70.5-5.046h-.087A12.356,12.356,0,0,1,68.8-1.639,4.731,4.731,0,0,1,67.091-.1a4.375,4.375,0,0,1-1.668.421,3.28,3.28,0,0,1-2.233-.711,4.364,4.364,0,0,1-1.334-1.987A8.753,8.753,0,0,1,61.393-5.1a12.56,12.56,0,0,1,.928-4.944,7.718,7.718,0,0,1,2.813-3.466A8.354,8.354,0,0,1,69.832-14.819ZM69.4-13.514a3.773,3.773,0,0,0-2.378.74,5.357,5.357,0,0,0-1.537,1.929,10.1,10.1,0,0,0-.841,2.581A14.924,14.924,0,0,0,64.38-5.51a7.947,7.947,0,0,0,.493,2.958,1.5,1.5,0,0,0,1.392,1.073A1.976,1.976,0,0,0,67.7-2.2a8,8,0,0,0,1.29-1.972A18.583,18.583,0,0,0,70.064-6.96a27.656,27.656,0,0,0,.754-3.176,23.184,23.184,0,0,0,.348-3.146,2.813,2.813,0,0,0-.826-.188Q69.861-13.514,69.4-13.514ZM81.519.319a3.076,3.076,0,0,1-1.9-.537,3.1,3.1,0,0,1-1.044-1.45,5.839,5.839,0,0,1-.334-2.016,21.009,21.009,0,0,1,.218-2.973q.217-1.522.435-2.885a14.857,14.857,0,0,0,.217-2.262,2.257,2.257,0,0,0-.131-.841.52.52,0,0,0-.536-.319,1.312,1.312,0,0,0-.9.595,6.081,6.081,0,0,0-.928,2.045l-1.044-.261a5.806,5.806,0,0,1,.377-1.262,7.08,7.08,0,0,1,.768-1.392,4.3,4.3,0,0,1,1.16-1.131,2.856,2.856,0,0,1,1.609-.45,2.21,2.21,0,0,1,1.885.769,3.578,3.578,0,0,1,.58,2.19,18.259,18.259,0,0,1-.131,2q-.13,1.16-.3,2.392t-.3,2.378A17.876,17.876,0,0,0,81.084-3.1a3.415,3.415,0,0,0,.087.74,1.215,1.215,0,0,0,.348.638,1.014,1.014,0,0,0,.725.246,2.012,2.012,0,0,0,1.421-.711,7.873,7.873,0,0,0,1.319-1.928,20.571,20.571,0,0,0,1.131-2.7,21.49,21.49,0,0,0,.8-3.03,16.042,16.042,0,0,0,.29-2.944q0-.406-.015-.87a7,7,0,0,0-.073-.841h2.871a3.515,3.515,0,0,1,.058.536v.421q0,.551-.058,1.29t-.174,1.813q-.116,1.073-.319,2.61-.174,1.392-.276,2.262t-.174,1.406q-.072.537-.087.87t-.015.623a1.867,1.867,0,0,0,.145.8.5.5,0,0,0,.493.3,1.409,1.409,0,0,0,.957-.58,5.246,5.246,0,0,0,.928-2.03l1.073.261a9.255,9.255,0,0,1-.377,1.262,6.388,6.388,0,0,1-.725,1.392A4.2,4.2,0,0,1,90.306-.131a2.735,2.735,0,0,1-1.566.45,2.2,2.2,0,0,1-1.711-.667,2.787,2.787,0,0,1-.609-1.943,9.6,9.6,0,0,1,.131-1.552q.13-.8.276-1.668h-.058a18.9,18.9,0,0,1-1.754,3.6A5.391,5.391,0,0,1,83.3-.16,3.6,3.6,0,0,1,81.519.319Zm19.343-15.138a6.178,6.178,0,0,1,2.074.333,3.234,3.234,0,0,1,1.522,1.088,3.247,3.247,0,0,1,.58,2.03,2.924,2.924,0,0,1-.783,2.045,5.981,5.981,0,0,1-2.03,1.406,14.949,14.949,0,0,1-2.7.884q-1.45.334-2.784.508a8.946,8.946,0,0,0,.377,2.842,3.336,3.336,0,0,0,1.059,1.624,2.615,2.615,0,0,0,1.639.522,4.1,4.1,0,0,0,1.522-.319,4.981,4.981,0,0,0,1.551-1.03,6.8,6.8,0,0,0,1.363-1.928l1.189.638a10.694,10.694,0,0,1-1.769,2.625,5.82,5.82,0,0,1-2.059,1.436,6.418,6.418,0,0,1-2.378.435A5.058,5.058,0,0,1,95.12-1.349a7.008,7.008,0,0,1-1.392-4.626,11.814,11.814,0,0,1,.435-3.147,9.7,9.7,0,0,1,1.305-2.871A6.515,6.515,0,0,1,97.7-14.051,6.327,6.327,0,0,1,100.862-14.819Zm-.377,1.305a2.589,2.589,0,0,0-1.987.826,5.455,5.455,0,0,0-1.174,2.132,12.563,12.563,0,0,0-.522,2.7,12.2,12.2,0,0,0,2.784-.74,5.685,5.685,0,0,0,1.986-1.276,2.321,2.321,0,0,0,.711-1.725,1.98,1.98,0,0,0-.479-1.392A1.7,1.7,0,0,0,100.485-13.514Zm12.644-5.162-.551,4.176h4.292l-.116,1.392-4.292.058q-.116,1.16-.275,2.421t-.276,2.494q-.116,1.233-.188,2.32t-.072,1.9a8.018,8.018,0,0,0,.072,1.044,1.807,1.807,0,0,0,.363.914,1.118,1.118,0,0,0,.928.362,2.859,2.859,0,0,0,.7-.116,2.7,2.7,0,0,0,.957-.536,4.746,4.746,0,0,0,1.044-1.32l.986.638A7.338,7.338,0,0,1,114.68-.493a4.3,4.3,0,0,1-2.6.812,3.17,3.17,0,0,1-1.972-.537,2.878,2.878,0,0,1-.986-1.421,5.546,5.546,0,0,1-.261-1.9q0-1.044.087-2.552t.261-3.292q.174-1.784.377-3.64l-2.494.029.145-1.508a3.873,3.873,0,0,0,3.016-1.088,7.038,7.038,0,0,0,1.479-3.089Zm10.846,0-.551,4.176h4.292l-.116,1.392-4.292.058q-.116,1.16-.275,2.421t-.275,2.494q-.116,1.233-.189,2.32t-.072,1.9a8.018,8.018,0,0,0,.072,1.044,1.807,1.807,0,0,0,.363.914,1.118,1.118,0,0,0,.928.362,2.859,2.859,0,0,0,.7-.116,2.7,2.7,0,0,0,.957-.536,4.746,4.746,0,0,0,1.044-1.32l.986.638a7.338,7.338,0,0,1-2.016,2.436,4.3,4.3,0,0,1-2.6.812,3.17,3.17,0,0,1-1.972-.537,2.878,2.878,0,0,1-.986-1.421,5.546,5.546,0,0,1-.261-1.9q0-1.044.087-2.552t.261-3.292q.174-1.784.377-3.64l-2.494.029.145-1.508a3.873,3.873,0,0,0,3.016-1.088,7.038,7.038,0,0,0,1.479-3.089Zm12.354,3.857a6.178,6.178,0,0,1,2.074.333,3.234,3.234,0,0,1,1.522,1.088,3.247,3.247,0,0,1,.58,2.03,2.924,2.924,0,0,1-.783,2.045,5.981,5.981,0,0,1-2.03,1.406,14.949,14.949,0,0,1-2.7.884q-1.45.334-2.784.508a8.946,8.946,0,0,0,.377,2.842,3.336,3.336,0,0,0,1.059,1.624,2.615,2.615,0,0,0,1.638.522,4.1,4.1,0,0,0,1.523-.319,4.982,4.982,0,0,0,1.551-1.03,6.8,6.8,0,0,0,1.363-1.928l1.189.638a10.694,10.694,0,0,1-1.769,2.625,5.82,5.82,0,0,1-2.059,1.436A6.418,6.418,0,0,1,134.7.319a5.058,5.058,0,0,1-4.118-1.668,7.008,7.008,0,0,1-1.392-4.626,11.814,11.814,0,0,1,.435-3.147,9.7,9.7,0,0,1,1.305-2.871,6.515,6.515,0,0,1,2.233-2.059A6.326,6.326,0,0,1,136.329-14.819Zm-.377,1.305a2.589,2.589,0,0,0-1.986.826,5.455,5.455,0,0,0-1.175,2.132,12.563,12.563,0,0,0-.522,2.7,12.2,12.2,0,0,0,2.784-.74,5.685,5.685,0,0,0,1.986-1.276,2.321,2.321,0,0,0,.711-1.725,1.98,1.98,0,0,0-.479-1.392A1.7,1.7,0,0,0,135.952-13.514Z" transform="translate(-1.102 21.895)" fill="#fff"/>
</svg>
